<mxfile host="app.diagrams.net" modified="2024-05-27T12:51:45.091Z" agent="Mozilla/5.0 (Windows NT 10.0; Win64; x64) AppleWebKit/537.36 (KHTML, like Gecko) Chrome/125.0.0.0 Safari/537.36" etag="9gEgz2f9A1lmjYRfJ8he" version="24.4.4" type="github">
  <diagram name="Page-1" id="ePbO5p0fnWOSLao09BDe">
    <mxGraphModel dx="673" dy="803" grid="1" gridSize="10" guides="1" tooltips="1" connect="1" arrows="1" fold="1" page="1" pageScale="1" pageWidth="827" pageHeight="1169" math="0" shadow="0">
      <root>
        <mxCell id="0" />
        <mxCell id="1" parent="0" />
        <mxCell id="Jf9gSHhXKmrXg9OaZqE8-33" value="" style="ellipse;html=1;shape=endState;fillColor=#000000;strokeColor=#ff0000;" vertex="1" parent="1">
          <mxGeometry x="1245.5" y="180" width="40" height="44" as="geometry" />
        </mxCell>
        <mxCell id="Jf9gSHhXKmrXg9OaZqE8-34" value="&lt;div&gt;&lt;br&gt;&lt;/div&gt;&lt;div&gt;&lt;br&gt;&lt;/div&gt;" style="endArrow=block;endFill=1;html=1;edgeStyle=orthogonalEdgeStyle;align=left;verticalAlign=top;rounded=0;exitX=0.5;exitY=1;exitDx=0;exitDy=0;entryX=0.5;entryY=0;entryDx=0;entryDy=0;" edge="1" parent="1" source="Jf9gSHhXKmrXg9OaZqE8-33" target="Jf9gSHhXKmrXg9OaZqE8-38">
          <mxGeometry x="-1" relative="1" as="geometry">
            <mxPoint x="1200" y="530" as="sourcePoint" />
            <mxPoint x="1290" y="320" as="targetPoint" />
          </mxGeometry>
        </mxCell>
        <mxCell id="Jf9gSHhXKmrXg9OaZqE8-35" value="1" style="edgeLabel;resizable=0;html=1;align=left;verticalAlign=bottom;" connectable="0" vertex="1" parent="Jf9gSHhXKmrXg9OaZqE8-34">
          <mxGeometry x="-1" relative="1" as="geometry" />
        </mxCell>
        <mxCell id="Jf9gSHhXKmrXg9OaZqE8-38" value="Utilisateur saisi son identifiant et mot de passe&lt;div&gt;&lt;br&gt;&lt;/div&gt;" style="html=1;align=center;verticalAlign=top;rounded=1;absoluteArcSize=1;arcSize=10;dashed=0;whiteSpace=wrap;" vertex="1" parent="1">
          <mxGeometry x="1170" y="320" width="190" height="40" as="geometry" />
        </mxCell>
        <mxCell id="Jf9gSHhXKmrXg9OaZqE8-43" value="rediriger vers la page de connexion" style="html=1;align=center;verticalAlign=top;rounded=1;absoluteArcSize=1;arcSize=10;dashed=0;whiteSpace=wrap;" vertex="1" parent="1">
          <mxGeometry x="1410" y="685" width="190" height="45" as="geometry" />
        </mxCell>
        <mxCell id="Jf9gSHhXKmrXg9OaZqE8-44" value="&lt;div&gt;Rediriger vers la page d&#39;accueil&lt;/div&gt;" style="html=1;align=center;verticalAlign=top;rounded=1;absoluteArcSize=1;arcSize=10;dashed=0;whiteSpace=wrap;" vertex="1" parent="1">
          <mxGeometry x="850" y="730" width="190" height="40" as="geometry" />
        </mxCell>
        <mxCell id="Jf9gSHhXKmrXg9OaZqE8-45" value="&amp;nbsp;mot de passe incorrect&lt;div&gt;&quot;votre identifiant n&#39;est pas reconnu&lt;/div&gt;" style="html=1;align=center;verticalAlign=top;rounded=1;absoluteArcSize=1;arcSize=10;dashed=0;whiteSpace=wrap;" vertex="1" parent="1">
          <mxGeometry x="1410" y="555" width="190" height="40" as="geometry" />
        </mxCell>
        <mxCell id="Jf9gSHhXKmrXg9OaZqE8-46" value="&lt;div&gt;Incrementer compteur d&#39;essai incorrect&lt;/div&gt;" style="html=1;align=center;verticalAlign=top;rounded=1;absoluteArcSize=1;arcSize=10;dashed=0;whiteSpace=wrap;" vertex="1" parent="1">
          <mxGeometry x="1060" y="730" width="190" height="40" as="geometry" />
        </mxCell>
        <mxCell id="Jf9gSHhXKmrXg9OaZqE8-47" value="" style="endArrow=classic;html=1;rounded=0;exitX=0.5;exitY=1;exitDx=0;exitDy=0;" edge="1" parent="1" source="Jf9gSHhXKmrXg9OaZqE8-45">
          <mxGeometry width="50" height="50" relative="1" as="geometry">
            <mxPoint x="1260" y="550" as="sourcePoint" />
            <mxPoint x="1505" y="680" as="targetPoint" />
          </mxGeometry>
        </mxCell>
        <mxCell id="Jf9gSHhXKmrXg9OaZqE8-49" value="" style="endArrow=classic;html=1;rounded=0;exitX=0.5;exitY=1;exitDx=0;exitDy=0;entryX=0.5;entryY=0;entryDx=0;entryDy=0;" edge="1" parent="1" source="Jf9gSHhXKmrXg9OaZqE8-46" target="Jf9gSHhXKmrXg9OaZqE8-57">
          <mxGeometry width="50" height="50" relative="1" as="geometry">
            <mxPoint x="1155" y="850" as="sourcePoint" />
            <mxPoint x="1190" y="810" as="targetPoint" />
          </mxGeometry>
        </mxCell>
        <mxCell id="Jf9gSHhXKmrXg9OaZqE8-50" value="" style="endArrow=classic;html=1;rounded=0;exitX=0.5;exitY=1;exitDx=0;exitDy=0;entryX=0.5;entryY=0;entryDx=0;entryDy=0;" edge="1" parent="1" source="Jf9gSHhXKmrXg9OaZqE8-38">
          <mxGeometry width="50" height="50" relative="1" as="geometry">
            <mxPoint x="1265" y="440" as="sourcePoint" />
            <mxPoint x="1265" y="500" as="targetPoint" />
          </mxGeometry>
        </mxCell>
        <mxCell id="Jf9gSHhXKmrXg9OaZqE8-51" value="Mot de passe correct?" style="rhombus;whiteSpace=wrap;html=1;fontColor=#000000;fillColor=#ffffc0;strokeColor=#ff0000;" vertex="1" parent="1">
          <mxGeometry x="930" y="545" width="150" height="85" as="geometry" />
        </mxCell>
        <mxCell id="Jf9gSHhXKmrXg9OaZqE8-52" value="no" style="edgeStyle=orthogonalEdgeStyle;html=1;align=left;verticalAlign=bottom;endArrow=open;endSize=8;strokeColor=#ff0000;rounded=0;entryX=0.5;entryY=0;entryDx=0;entryDy=0;exitX=1;exitY=0.5;exitDx=0;exitDy=0;" edge="1" source="Jf9gSHhXKmrXg9OaZqE8-51" parent="1" target="Jf9gSHhXKmrXg9OaZqE8-46">
          <mxGeometry x="-1" relative="1" as="geometry">
            <mxPoint x="1350" y="680" as="targetPoint" />
          </mxGeometry>
        </mxCell>
        <mxCell id="Jf9gSHhXKmrXg9OaZqE8-53" value="yes" style="edgeStyle=orthogonalEdgeStyle;html=1;align=left;verticalAlign=top;endArrow=open;endSize=8;strokeColor=#ff0000;rounded=0;" edge="1" source="Jf9gSHhXKmrXg9OaZqE8-51" parent="1" target="Jf9gSHhXKmrXg9OaZqE8-44">
          <mxGeometry x="-0.75" y="15" relative="1" as="geometry">
            <mxPoint x="1210" y="760" as="targetPoint" />
            <mxPoint as="offset" />
          </mxGeometry>
        </mxCell>
        <mxCell id="Jf9gSHhXKmrXg9OaZqE8-55" value="&lt;div&gt;Afficher le message &quot;votre mot de passe est incorrect&quot;&lt;/div&gt;" style="html=1;align=center;verticalAlign=top;rounded=1;absoluteArcSize=1;arcSize=10;dashed=0;whiteSpace=wrap;" vertex="1" parent="1">
          <mxGeometry x="1330" y="925" width="190" height="40" as="geometry" />
        </mxCell>
        <mxCell id="Jf9gSHhXKmrXg9OaZqE8-56" value="&lt;div&gt;Bloquer le compte&lt;/div&gt;" style="html=1;align=center;verticalAlign=top;rounded=1;absoluteArcSize=1;arcSize=10;dashed=0;whiteSpace=wrap;" vertex="1" parent="1">
          <mxGeometry x="970" y="925" width="190" height="40" as="geometry" />
        </mxCell>
        <mxCell id="Jf9gSHhXKmrXg9OaZqE8-57" value="Compteur &amp;gt;3 ?" style="rhombus;whiteSpace=wrap;html=1;fontColor=#000000;fillColor=#ffffc0;strokeColor=#ff0000;" vertex="1" parent="1">
          <mxGeometry x="1091.25" y="810" width="127.5" height="60" as="geometry" />
        </mxCell>
        <mxCell id="Jf9gSHhXKmrXg9OaZqE8-58" value="no" style="edgeStyle=orthogonalEdgeStyle;html=1;align=left;verticalAlign=bottom;endArrow=open;endSize=8;strokeColor=#ff0000;rounded=0;entryX=0.5;entryY=0;entryDx=0;entryDy=0;exitX=0;exitY=0.5;exitDx=0;exitDy=0;" edge="1" source="Jf9gSHhXKmrXg9OaZqE8-57" parent="1" target="Jf9gSHhXKmrXg9OaZqE8-56">
          <mxGeometry x="-1" y="-218" relative="1" as="geometry">
            <mxPoint x="1370" y="730" as="targetPoint" />
            <mxPoint x="218" y="210" as="offset" />
          </mxGeometry>
        </mxCell>
        <mxCell id="Jf9gSHhXKmrXg9OaZqE8-59" value="yes" style="edgeStyle=orthogonalEdgeStyle;html=1;align=left;verticalAlign=top;endArrow=open;endSize=8;strokeColor=#ff0000;rounded=0;entryX=0.5;entryY=0;entryDx=0;entryDy=0;" edge="1" source="Jf9gSHhXKmrXg9OaZqE8-57" parent="1" target="Jf9gSHhXKmrXg9OaZqE8-55">
          <mxGeometry x="-1" y="140" relative="1" as="geometry">
            <mxPoint x="1230" y="810" as="targetPoint" />
            <mxPoint x="-137" y="112" as="offset" />
          </mxGeometry>
        </mxCell>
        <mxCell id="Jf9gSHhXKmrXg9OaZqE8-60" value="rediriger vers la page de connexion" style="html=1;align=center;verticalAlign=top;rounded=1;absoluteArcSize=1;arcSize=10;dashed=0;whiteSpace=wrap;" vertex="1" parent="1">
          <mxGeometry x="1330" y="1020" width="190" height="45" as="geometry" />
        </mxCell>
        <mxCell id="Jf9gSHhXKmrXg9OaZqE8-61" value="" style="endArrow=classic;html=1;rounded=0;exitX=0.5;exitY=1;exitDx=0;exitDy=0;entryX=0.5;entryY=0;entryDx=0;entryDy=0;" edge="1" parent="1" source="Jf9gSHhXKmrXg9OaZqE8-55" target="Jf9gSHhXKmrXg9OaZqE8-60">
          <mxGeometry width="50" height="50" relative="1" as="geometry">
            <mxPoint x="1424" y="970" as="sourcePoint" />
            <mxPoint x="1426" y="1025" as="targetPoint" />
          </mxGeometry>
        </mxCell>
        <mxCell id="Jf9gSHhXKmrXg9OaZqE8-62" value="" style="shape=sumEllipse;perimeter=ellipsePerimeter;html=1;backgroundOutline=1;" vertex="1" parent="1">
          <mxGeometry x="1420" y="1110" width="30" height="30" as="geometry" />
        </mxCell>
        <mxCell id="Jf9gSHhXKmrXg9OaZqE8-63" value="Afficher le message &quot;Votre compte à été bloqué&quot;" style="html=1;align=center;verticalAlign=top;rounded=1;absoluteArcSize=1;arcSize=10;dashed=0;whiteSpace=wrap;" vertex="1" parent="1">
          <mxGeometry x="970" y="1020" width="190" height="40" as="geometry" />
        </mxCell>
        <mxCell id="Jf9gSHhXKmrXg9OaZqE8-64" value="" style="endArrow=classic;html=1;rounded=0;exitX=0.5;exitY=1;exitDx=0;exitDy=0;" edge="1" parent="1" source="Jf9gSHhXKmrXg9OaZqE8-63">
          <mxGeometry width="50" height="50" relative="1" as="geometry">
            <mxPoint x="1070" y="1065" as="sourcePoint" />
            <mxPoint x="1065" y="1130" as="targetPoint" />
          </mxGeometry>
        </mxCell>
        <mxCell id="Jf9gSHhXKmrXg9OaZqE8-65" value="" style="endArrow=classic;html=1;rounded=0;exitX=0.5;exitY=1;exitDx=0;exitDy=0;entryX=0.5;entryY=0;entryDx=0;entryDy=0;" edge="1" parent="1">
          <mxGeometry width="50" height="50" relative="1" as="geometry">
            <mxPoint x="1434.29" y="1055" as="sourcePoint" />
            <mxPoint x="1434.29" y="1110" as="targetPoint" />
          </mxGeometry>
        </mxCell>
        <mxCell id="Jf9gSHhXKmrXg9OaZqE8-66" value="" style="endArrow=classic;html=1;rounded=0;entryX=0.5;entryY=0;entryDx=0;entryDy=0;exitX=0.5;exitY=1;exitDx=0;exitDy=0;" edge="1" parent="1" source="Jf9gSHhXKmrXg9OaZqE8-56" target="Jf9gSHhXKmrXg9OaZqE8-63">
          <mxGeometry width="50" height="50" relative="1" as="geometry">
            <mxPoint x="1060" y="965" as="sourcePoint" />
            <mxPoint x="1060" y="1020" as="targetPoint" />
          </mxGeometry>
        </mxCell>
        <mxCell id="Jf9gSHhXKmrXg9OaZqE8-69" value="" style="edgeStyle=orthogonalEdgeStyle;rounded=0;orthogonalLoop=1;jettySize=auto;html=1;" edge="1" parent="1" source="Jf9gSHhXKmrXg9OaZqE8-68" target="Jf9gSHhXKmrXg9OaZqE8-63">
          <mxGeometry relative="1" as="geometry" />
        </mxCell>
        <mxCell id="Jf9gSHhXKmrXg9OaZqE8-68" value="" style="ellipse;html=1;shape=endState;fillColor=strokeColor;" vertex="1" parent="1">
          <mxGeometry x="1050" y="1130" width="30" height="30" as="geometry" />
        </mxCell>
        <mxCell id="Jf9gSHhXKmrXg9OaZqE8-71" value="" style="endArrow=classic;html=1;rounded=0;entryX=0.476;entryY=0;entryDx=0;entryDy=0;exitX=0.5;exitY=1;exitDx=0;exitDy=0;entryPerimeter=0;" edge="1" parent="1" source="Jf9gSHhXKmrXg9OaZqE8-44" target="Jf9gSHhXKmrXg9OaZqE8-72">
          <mxGeometry width="50" height="50" relative="1" as="geometry">
            <mxPoint x="944.29" y="790" as="sourcePoint" />
            <mxPoint x="944.29" y="845" as="targetPoint" />
          </mxGeometry>
        </mxCell>
        <mxCell id="Jf9gSHhXKmrXg9OaZqE8-72" value="" style="ellipse;html=1;shape=endState;fillColor=strokeColor;" vertex="1" parent="1">
          <mxGeometry x="930" y="850" width="30" height="30" as="geometry" />
        </mxCell>
        <mxCell id="Jf9gSHhXKmrXg9OaZqE8-73" value="" style="shape=sumEllipse;perimeter=ellipsePerimeter;html=1;backgroundOutline=1;" vertex="1" parent="1">
          <mxGeometry x="1490" y="780" width="30" height="30" as="geometry" />
        </mxCell>
        <mxCell id="Jf9gSHhXKmrXg9OaZqE8-74" value="" style="endArrow=classic;html=1;rounded=0;exitX=0.5;exitY=1;exitDx=0;exitDy=0;entryX=0.5;entryY=0;entryDx=0;entryDy=0;" edge="1" parent="1" source="Jf9gSHhXKmrXg9OaZqE8-43" target="Jf9gSHhXKmrXg9OaZqE8-73">
          <mxGeometry width="50" height="50" relative="1" as="geometry">
            <mxPoint x="1504" y="665" as="sourcePoint" />
            <mxPoint x="1506" y="720" as="targetPoint" />
          </mxGeometry>
        </mxCell>
        <mxCell id="Jf9gSHhXKmrXg9OaZqE8-76" value="&lt;span style=&quot;text-wrap: nowrap;&quot;&gt;Identifiant correct?&lt;/span&gt;" style="rhombus;whiteSpace=wrap;html=1;fontColor=#000000;fillColor=#ffffc0;strokeColor=#ff0000;" vertex="1" parent="1">
          <mxGeometry x="1201" y="495" width="129" height="75" as="geometry" />
        </mxCell>
        <mxCell id="Jf9gSHhXKmrXg9OaZqE8-77" value="no" style="edgeStyle=orthogonalEdgeStyle;html=1;align=left;verticalAlign=bottom;endArrow=open;endSize=8;strokeColor=#ff0000;rounded=0;exitX=1;exitY=0.5;exitDx=0;exitDy=0;entryX=0.5;entryY=0;entryDx=0;entryDy=0;" edge="1" source="Jf9gSHhXKmrXg9OaZqE8-76" parent="1" target="Jf9gSHhXKmrXg9OaZqE8-45">
          <mxGeometry x="-1" relative="1" as="geometry">
            <mxPoint x="1390" y="625" as="targetPoint" />
          </mxGeometry>
        </mxCell>
        <mxCell id="Jf9gSHhXKmrXg9OaZqE8-78" value="yes" style="edgeStyle=orthogonalEdgeStyle;html=1;align=left;verticalAlign=top;endArrow=open;endSize=8;strokeColor=#ff0000;rounded=0;entryX=0.5;entryY=0;entryDx=0;entryDy=0;" edge="1" source="Jf9gSHhXKmrXg9OaZqE8-76" parent="1" target="Jf9gSHhXKmrXg9OaZqE8-51">
          <mxGeometry x="-1" relative="1" as="geometry">
            <mxPoint x="1250" y="705" as="targetPoint" />
          </mxGeometry>
        </mxCell>
        <mxCell id="Jf9gSHhXKmrXg9OaZqE8-79" value="&lt;font style=&quot;font-size: 20px;&quot;&gt;Diagramme d&#39;activité - Connexion&lt;/font&gt;" style="text;html=1;align=center;verticalAlign=middle;resizable=0;points=[];autosize=1;strokeColor=none;fillColor=none;" vertex="1" parent="1">
          <mxGeometry x="1100" y="33" width="320" height="40" as="geometry" />
        </mxCell>
      </root>
    </mxGraphModel>
  </diagram>
</mxfile>
